<?xml version="1.0" standalone="no"?>
<!DOCTYPE svg PUBLIC "-//W3C//DTD SVG 20010904//EN"
 "http://www.w3.org/TR/2001/REC-SVG-20010904/DTD/svg10.dtd">
<svg version="1.0" xmlns="http://www.w3.org/2000/svg"
 width="617.000000pt" height="617.000000pt" viewBox="0 0 617.000000 617.000000"
 preserveAspectRatio="xMidYMid meet">
<metadata>
Created by potrace 1.11, written by Peter Selinger 2001-2013
</metadata>
<g transform="translate(0.000000,617.000000) scale(0.100000,-0.100000)"
fill="#000000" stroke="none">
<path d="M3420 5593 c0 -4 -25 -7 -55 -6 -31 1 -55 -3 -55 -8 0 -6 -4 -8 -9
-4 -5 3 -12 1 -16 -5 -4 -7 -12 -7 -24 0 -10 5 -20 7 -22 5 -11 -10 -59 -13
-59 -2 0 6 -7 2 -15 -9 -11 -14 -14 -15 -15 -4 0 12 -2 13 -9 1 -5 -7 -13 -11
-19 -7 -6 3 -14 1 -18 -5 -5 -8 -3 -9 6 -4 8 5 11 4 7 -3 -4 -5 -16 -8 -27 -5
-11 3 -20 1 -20 -4 0 -6 -11 -9 -25 -8 -14 2 -25 -1 -25 -5 0 -5 -12 -7 -26
-4 -16 3 -23 1 -19 -6 4 -7 -2 -7 -20 0 -17 7 -24 7 -20 0 3 -6 -3 -10 -15
-10 -11 0 -23 -7 -26 -15 -5 -12 -10 -13 -20 -4 -11 9 -14 8 -15 -7 0 -11 -3
-13 -6 -7 -3 9 -10 10 -21 4 -9 -5 -25 -7 -35 -6 -9 2 -15 0 -12 -5 6 -10 -19
-20 -50 -20 -13 0 -30 -7 -39 -15 -10 -11 -17 -12 -22 -4 -5 8 -13 4 -26 -12
-11 -13 -17 -17 -13 -9 6 13 5 13 -7 0 -7 -9 -21 -14 -30 -12 -12 2 -18 -3
-18 -13 0 -12 -6 -16 -20 -12 -11 3 -18 1 -14 -4 3 -5 0 -9 -6 -9 -6 0 -8 -5
-4 -12 5 -9 2 -9 -9 1 -12 10 -17 10 -17 2 0 -8 -8 -10 -19 -6 -14 4 -21 0
-26 -15 -4 -11 -10 -18 -15 -15 -4 2 -22 -2 -39 -11 -17 -8 -36 -12 -42 -8 -8
5 -8 1 0 -13 9 -18 7 -20 -16 -15 -20 4 -24 2 -18 -8 6 -10 4 -12 -8 -7 -11 4
-23 -3 -36 -19 -12 -15 -25 -23 -32 -18 -8 4 -9 3 -5 -4 5 -8 0 -12 -13 -12
-12 0 -21 -7 -21 -15 0 -8 -3 -14 -7 -13 -5 2 -23 -3 -40 -11 -23 -9 -33 -20
-33 -35 0 -17 -2 -18 -10 -6 -8 13 -10 12 -10 -4 0 -16 -2 -17 -17 -5 -15 13
-15 12 -5 -7 11 -22 12 -22 -37 -26 -16 -2 -18 -5 -8 -17 9 -12 9 -13 0 -7 -8
4 -23 -3 -38 -20 -22 -23 -27 -25 -42 -13 -15 13 -15 12 -5 -8 9 -16 9 -24 0
-29 -7 -4 -8 -3 -4 4 12 20 -4 13 -29 -13 -26 -25 -33 -41 -13 -29 7 4 8 3 4
-5 -4 -6 -12 -8 -18 -5 -8 5 -9 1 -5 -10 4 -9 3 -15 -2 -12 -12 8 -52 -29 -43
-40 4 -4 -1 -2 -11 5 -15 12 -17 12 -11 -4 5 -13 4 -16 -5 -11 -8 6 -11 2 -9
-10 2 -14 -3 -19 -20 -18 -18 1 -20 -1 -11 -12 9 -11 7 -14 -10 -14 -12 0 -19
-4 -16 -10 3 -5 0 -10 -8 -10 -7 0 -23 -10 -35 -23 -18 -19 -19 -26 -9 -37 9
-10 9 -12 0 -6 -7 4 -13 3 -13 -3 0 -6 -8 -7 -17 -4 -16 6 -17 5 -3 -12 14
-17 13 -18 -2 -12 -11 4 -15 2 -12 -7 3 -7 -3 -19 -12 -27 -16 -12 -17 -12 -9
1 6 12 6 13 -6 2 -12 -11 -12 -14 1 -22 8 -5 10 -10 4 -10 -5 0 -15 5 -22 10
-6 6 -10 7 -7 4 3 -4 -1 -14 -8 -22 -10 -13 -9 -14 2 -7 10 5 12 4 7 -3 -4 -7
-14 -12 -22 -12 -11 0 -12 -4 -5 -19 9 -16 8 -18 -11 -13 -14 3 -19 2 -14 -7
4 -6 0 -18 -8 -27 -9 -9 -13 -20 -10 -26 4 -7 2 -8 -5 -4 -16 10 -41 -12 -34
-30 3 -9 -1 -14 -11 -14 -14 0 -15 -4 -6 -20 6 -11 7 -20 3 -19 -20 3 -34 -2
-28 -11 7 -12 -19 -53 -28 -43 -4 3 -7 -6 -7 -21 0 -14 -6 -29 -14 -32 -8 -3
-13 -14 -11 -25 3 -12 0 -17 -7 -13 -8 5 -9 1 -4 -11 6 -16 4 -16 -10 -4 -16
13 -16 12 -5 -10 8 -15 9 -21 2 -17 -6 4 -12 2 -12 -3 -1 -6 -2 -15 -3 -20 0
-5 -5 -13 -10 -18 -5 -4 -6 -3 -2 4 3 6 2 15 -4 18 -6 4 -10 3 -9 -2 4 -18
-14 -72 -22 -67 -5 3 -6 -2 -3 -10 4 -9 1 -16 -6 -16 -9 0 -9 -4 1 -17 10 -11
10 -14 2 -9 -8 4 -13 2 -13 -5 0 -8 -5 -7 -17 2 -16 13 -17 12 -4 -4 12 -15
11 -20 -3 -35 -9 -10 -13 -21 -10 -25 4 -3 3 -14 -2 -24 -9 -20 -11 -30 -13
-56 0 -10 -5 -16 -10 -13 -11 7 -32 -50 -25 -68 3 -7 -2 -19 -10 -26 -9 -7
-13 -16 -10 -21 3 -5 1 -9 -3 -9 -5 0 -9 -8 -10 -17 -2 -54 -8 -83 -16 -83 -5
0 -4 -7 3 -16 8 -8 9 -14 4 -13 -19 3 -34 -1 -34 -12 0 -5 4 -8 8 -5 5 3 9 -1
9 -9 0 -8 -4 -12 -9 -9 -4 3 -8 2 -9 -3 -5 -53 -4 -71 4 -88 5 -11 6 -17 2
-13 -4 4 -16 3 -26 -2 -12 -7 -20 -7 -24 0 -5 8 -11 7 -21 -1 -11 -9 -14 -9
-14 1 0 10 -3 10 -14 1 -10 -9 -16 -9 -21 -1 -5 8 -10 8 -20 0 -9 -8 -15 -8
-20 0 -4 7 -12 7 -25 0 -13 -7 -21 -7 -25 0 -5 8 -11 7 -21 -1 -11 -9 -14 -9
-14 1 0 10 -3 10 -14 1 -10 -9 -16 -9 -21 -1 -5 8 -10 8 -20 0 -9 -8 -15 -8
-20 0 -4 7 -12 7 -25 0 -13 -7 -21 -7 -25 0 -5 8 -11 7 -21 -1 -11 -9 -14 -9
-14 1 0 10 -3 10 -14 1 -10 -9 -16 -9 -21 -1 -5 8 -10 8 -20 0 -9 -8 -15 -8
-20 0 -4 7 -12 7 -25 0 -13 -7 -21 -7 -25 0 -5 8 -11 7 -21 -1 -11 -9 -14 -9
-14 1 0 10 -3 10 -14 1 -10 -9 -16 -9 -21 -1 -5 8 -10 8 -20 0 -9 -8 -15 -8
-20 0 -4 7 -12 7 -25 0 -13 -7 -21 -7 -25 0 -5 8 -11 7 -21 -1 -11 -9 -14 -9
-14 1 0 10 -3 10 -14 1 -10 -9 -16 -9 -21 -1 -5 8 -10 8 -20 0 -9 -8 -15 -8
-20 0 -4 7 -12 7 -25 0 -13 -7 -21 -7 -25 0 -5 8 -11 8 -20 0 -9 -8 -14 -8
-17 0 -2 7 -15 0 -32 -15 -17 -15 -26 -32 -22 -41 4 -10 2 -13 -6 -8 -8 5 -9
2 -5 -10 6 -14 3 -17 -8 -12 -13 4 -14 2 -6 -12 7 -12 5 -22 -7 -36 -9 -11
-11 -16 -4 -12 17 10 15 -5 -5 -33 -9 -14 -11 -21 -5 -17 8 5 10 2 6 -8 -3 -9
-11 -16 -18 -16 -6 0 -4 -5 4 -10 13 -9 13 -10 0 -10 -12 0 -12 -2 -2 -9 11
-7 10 -9 -3 -15 -11 -4 -14 -12 -10 -25 4 -13 -1 -27 -14 -40 -12 -12 -17 -21
-11 -21 5 0 7 -7 4 -15 -4 -8 -10 -13 -14 -10 -5 3 -5 -8 0 -24 7 -25 5 -33
-13 -46 -12 -9 -16 -13 -10 -10 8 4 13 0 13 -9 0 -9 -4 -16 -10 -16 -5 0 -10
-9 -10 -19 0 -11 -4 -22 -10 -26 -5 -3 -6 -13 -3 -22 5 -12 3 -14 -7 -8 -9 5
-11 4 -6 -4 4 -6 2 -19 -6 -28 -11 -14 -11 -16 2 -8 12 7 13 6 4 -6 -5 -8 -10
-28 -9 -45 1 -22 -3 -30 -11 -27 -10 4 -11 -2 -4 -25 6 -23 5 -32 -6 -36 -16
-6 -20 -81 -4 -91 6 -3 10 -1 10 5 0 8 6 8 20 0 14 -8 20 -8 20 0 0 7 6 8 19
0 14 -7 22 -7 26 0 5 8 11 7 21 -1 11 -9 14 -9 14 0 0 9 5 9 20 1 14 -8 20 -8
20 0 0 8 6 8 20 0 14 -8 20 -8 20 0 0 7 6 8 19 0 14 -7 22 -7 26 0 5 8 11 7
21 -1 8 -6 14 -7 14 -2 0 7 15 8 40 3 22 -4 40 -3 40 2 0 5 9 4 20 -2 11 -6
20 -7 20 -3 0 10 62 9 78 -1 6 -3 13 -2 17 4 4 6 11 7 17 4 16 -10 88 -10 88
0 0 5 6 3 14 -3 8 -7 16 -8 19 -4 3 4 50 6 106 3 56 -3 101 -1 101 4 0 5 6 3
14 -3 8 -7 17 -8 20 -3 3 5 23 6 46 2 22 -4 40 -3 40 2 0 5 9 4 20 -2 14 -8
20 -8 20 0 0 7 6 8 18 1 13 -7 23 -6 30 1 9 9 12 9 12 1 0 -6 8 -9 18 -6 13 3
18 -2 19 -17 2 -21 -1 -21 -108 -18 -60 2 -109 -1 -109 -6 0 -5 -6 -3 -14 3
-8 7 -17 8 -20 3 -3 -5 -23 -6 -46 -2 -22 4 -40 3 -40 -2 0 -5 -9 -4 -20 2
-11 6 -20 7 -20 2 0 -5 -18 -6 -40 -2 -25 5 -40 4 -40 -3 0 -5 -5 -5 -13 2 -8
6 -17 8 -20 4 -4 -3 -31 -6 -61 -5 -53 0 -54 -1 -46 -23 5 -13 6 -25 3 -28
-10 -10 -8 -77 2 -81 7 -3 7 -7 0 -13 -5 -4 -10 -15 -10 -23 0 -8 5 -18 10
-22 6 -5 5 -8 -4 -8 -8 0 -11 -7 -8 -19 3 -15 1 -18 -11 -14 -11 5 -14 1 -10
-14 3 -13 -1 -25 -12 -33 -11 -8 -15 -20 -12 -34 5 -19 4 -19 -11 -7 -15 12
-17 12 -11 -3 4 -10 1 -16 -7 -16 -11 0 -11 -3 1 -10 13 -8 12 -10 -2 -10 -19
0 -22 -8 -12 -33 4 -11 13 -13 39 -7 21 5 38 3 44 -3 8 -8 11 -8 11 0 0 8 9 9
30 3 17 -5 30 -6 30 -2 0 4 45 5 100 2 55 -3 100 -1 100 3 0 4 9 3 20 -3 11
-6 20 -7 20 -3 0 4 45 6 100 3 55 -3 100 -1 100 3 0 4 9 3 20 -3 14 -8 20 -8
20 0 0 6 3 9 8 6 4 -2 37 -6 72 -7 62 -3 98 -18 86 -38 -3 -5 3 -20 14 -34 11
-14 20 -29 20 -34 0 -4 -5 -1 -10 7 -7 10 -10 11 -10 2 0 -7 7 -15 15 -18 8
-4 15 -15 15 -26 0 -10 4 -17 8 -14 4 2 9 -7 10 -22 1 -14 5 -28 10 -31 7 -6
13 -23 17 -51 4 -28 17 -50 26 -44 5 3 9 -6 9 -20 0 -17 6 -26 16 -26 8 0 13
-4 10 -9 -8 -12 19 -63 28 -53 4 4 7 2 6 -3 -5 -21 0 -46 8 -41 4 2 9 -4 9
-15 1 -11 -2 -17 -8 -14 -15 10 -10 -2 8 -16 14 -12 16 -12 9 1 -4 9 -2 8 7
-2 8 -10 18 -14 23 -11 5 4 3 1 -3 -7 -14 -15 -18 -34 -5 -27 4 3 16 -5 27
-16 11 -11 15 -17 8 -13 -10 5 -11 0 -4 -33 1 -2 9 3 19 10 9 7 14 9 9 4 -4
-4 1 -17 10 -28 10 -11 13 -17 6 -14 -6 4 -15 2 -19 -4 -4 -7 -3 -10 2 -7 11
6 45 -28 37 -36 -4 -3 1 -6 9 -6 9 0 19 -7 22 -16 6 -15 4 -15 -11 -3 -16 13
-17 12 -4 -4 8 -10 21 -15 30 -12 8 3 12 3 8 -1 -4 -4 -2 -13 3 -20 6 -6 9
-16 8 -21 -2 -4 7 -21 20 -37 12 -16 22 -24 22 -19 0 5 -6 15 -12 22 -11 10
-10 11 5 6 9 -4 17 -15 17 -25 0 -10 8 -24 17 -31 14 -12 16 -12 8 0 -5 10 -4
12 4 7 6 -4 9 -11 6 -16 -3 -5 3 -13 12 -19 14 -8 15 -10 3 -11 -13 0 -13 -2
0 -9 8 -6 18 -7 22 -5 5 3 8 2 7 -3 -4 -22 2 -35 15 -30 9 4 17 -2 21 -14 4
-10 11 -19 16 -19 6 0 7 -5 4 -10 -3 -6 -1 -10 5 -10 6 0 8 -5 4 -13 -6 -9 -5
-9 7 0 19 15 40 -2 32 -25 -5 -11 -3 -13 7 -7 10 6 12 4 6 -10 -5 -15 -4 -16
9 -5 13 10 15 9 15 -8 0 -11 8 -26 17 -33 16 -13 17 -12 4 4 -12 15 -12 17 2
11 8 -3 18 -12 21 -20 3 -8 13 -14 23 -14 15 0 16 -2 3 -10 -12 -8 -9 -10 11
-10 26 0 45 -23 34 -40 -3 -5 0 -12 6 -16 8 -5 9 -3 4 6 -6 10 -4 12 9 7 10
-4 20 -7 22 -7 2 0 4 -5 4 -11 0 -5 -6 -7 -12 -3 -10 6 -9 3 0 -8 8 -10 21
-14 30 -11 9 3 14 3 10 -2 -11 -11 34 -43 55 -39 14 2 17 -1 13 -13 -5 -12 -1
-14 15 -10 15 4 19 2 15 -8 -5 -15 21 -42 31 -31 3 3 1 6 -5 6 -7 0 -12 5 -12
11 0 6 22 -12 49 -40 39 -40 50 -48 55 -35 5 13 9 14 21 4 8 -7 12 -17 8 -23
-3 -5 -1 -7 5 -4 15 10 43 -3 35 -17 -4 -6 1 -5 10 3 15 12 17 12 12 -2 -4 -8
-1 -18 6 -23 7 -4 10 -3 6 3 -3 5 0 10 8 10 8 0 12 -4 9 -9 -10 -16 7 -30 22
-17 11 9 14 8 14 -5 0 -10 4 -15 9 -12 5 4 12 0 14 -6 4 -9 6 -9 6 2 1 10 6 8
16 -7 9 -12 22 -20 29 -17 8 3 17 0 22 -7 5 -8 3 -10 -7 -4 -8 5 -11 4 -6 0 4
-5 15 -10 25 -11 9 -2 26 -5 37 -8 11 -2 26 -5 33 -5 7 -1 10 -5 7 -11 -3 -6
5 -10 19 -10 14 0 28 -5 32 -12 5 -7 3 -8 -6 -3 -9 5 -11 4 -6 -4 4 -6 12 -9
17 -5 5 3 16 0 24 -6 12 -10 15 -10 15 1 0 11 2 11 10 -1 5 -8 12 -11 16 -8 4
4 16 1 28 -7 11 -8 29 -15 39 -15 10 0 16 -4 13 -9 -3 -5 1 -11 9 -15 8 -3 15
0 15 7 0 9 2 9 8 1 4 -7 18 -14 32 -15 14 -2 31 -11 38 -19 10 -13 11 -12 6 4
-6 17 -5 17 17 5 13 -7 28 -12 32 -11 4 1 17 -3 29 -9 16 -9 19 -8 12 3 -6 9
0 8 17 -3 18 -12 30 -14 42 -7 11 5 17 5 17 0 0 -6 7 -13 16 -16 8 -3 12 -2 9
4 -3 6 -1 10 4 10 6 0 11 -5 11 -11 0 -5 5 -7 10 -4 6 3 10 -2 10 -12 0 -15 2
-16 10 -3 6 9 10 11 10 3 0 -7 7 -10 15 -7 8 4 15 1 15 -5 0 -8 5 -9 17 -2 10
5 26 5 40 0 15 -5 23 -5 23 2 0 6 4 8 8 5 5 -3 34 -6 65 -7 31 -1 57 -6 57
-11 0 -5 4 -7 9 -3 5 3 12 1 15 -4 7 -10 25 -9 43 2 6 4 15 3 18 -3 4 -6 12
-7 18 -3 15 10 38 10 55 0 7 -5 12 -3 12 4 0 8 4 8 13 1 20 -17 23 -17 40 -4
10 9 17 10 22 2 3 -6 12 -7 18 -3 16 10 39 10 53 0 6 -4 23 -3 37 2 14 5 28 7
31 4 3 -4 6 -1 6 5 0 7 5 12 11 12 5 0 8 -4 5 -8 -3 -5 1 -9 9 -9 8 0 14 3 13
6 -2 17 4 20 25 12 13 -5 30 -5 37 -1 9 5 20 4 27 -2 10 -8 13 -7 13 3 0 11 2
11 10 -1 8 -13 10 -12 10 4 0 15 3 16 14 7 11 -9 16 -9 22 0 5 8 3 10 -7 4 -8
-5 -11 -4 -6 0 8 9 57 14 57 5 0 -3 11 -5 25 -5 14 0 25 3 25 7 0 4 7 4 17 1
12 -5 14 -3 8 8 -8 12 -6 12 8 0 9 -7 17 -9 17 -4 0 5 8 10 18 11 9 1 26 3 37
4 26 4 56 29 48 41 -3 6 -1 7 5 3 6 -4 8 -14 5 -24 -5 -13 -1 -12 15 5 16 16
29 20 53 16 24 -3 29 -1 24 9 -6 10 -5 11 5 1 11 -10 19 -8 39 10 13 12 21 17
18 10 -5 -7 0 -9 13 -6 11 3 20 12 20 20 0 12 3 13 14 4 10 -9 15 -8 19 4 4 8
13 12 21 9 8 -3 17 -1 20 5 4 6 14 7 24 4 14 -6 15 -4 5 8 -9 11 -7 14 13 17
13 1 35 3 48 5 13 1 22 4 20 6 -7 8 36 32 46 26 6 -3 10 1 10 11 0 14 2 15 17
3 11 -10 14 -10 9 -1 -4 7 -1 12 9 12 10 0 13 5 9 13 -5 7 0 6 11 -3 10 -8 16
-10 13 -5 -3 6 3 19 14 30 19 20 19 20 13 0 -6 -18 -5 -18 7 -4 7 9 26 19 41
23 15 3 25 10 22 15 -2 5 2 12 11 15 10 4 13 2 9 -7 -4 -6 1 -3 9 7 9 11 16
16 16 12 0 -5 6 -3 13 3 8 6 17 8 20 4 4 -3 7 2 7 13 0 16 2 17 10 4 8 -12 10
-10 10 10 0 20 2 22 10 10 8 -13 14 -8 12 11 0 3 9 11 21 19 21 12 21 12 7 -5
-14 -17 -14 -17 7 -5 16 10 19 18 12 26 -8 9 -5 11 10 7 14 -3 23 0 27 11 3 9
10 16 16 16 5 0 6 -6 2 -13 -6 -9 -3 -8 8 1 9 8 15 19 12 26 -3 8 2 16 10 19
11 4 13 1 10 -11 -3 -9 1 -7 8 6 8 12 17 19 21 16 4 -4 7 -2 7 4 0 7 7 12 15
12 8 0 15 4 15 10 0 5 -8 7 -17 4 -14 -4 -13 -2 2 7 11 7 25 14 30 14 15 2 65
24 65 29 0 3 -8 3 -17 0 -17 -5 -17 -5 0 6 9 6 23 8 30 4 7 -5 6 0 -3 11 -8
10 -10 16 -3 12 7 -5 16 1 23 13 6 11 17 20 25 20 7 0 17 5 21 12 4 6 3 8 -4
4 -6 -3 -13 -2 -16 3 -4 5 5 8 19 7 22 -3 23 -1 13 18 -10 19 -10 20 5 7 15
-12 17 -11 17 3 0 10 5 14 10 11 6 -3 10 1 10 10 0 11 5 15 14 12 11 -4 13 -1
9 10 -5 12 -3 14 7 8 10 -6 12 -4 7 9 -4 10 -3 15 3 11 5 -3 14 4 20 15 6 11
17 20 25 20 7 0 17 4 20 10 3 6 -1 7 -12 4 -10 -3 -7 1 7 9 14 9 27 14 31 12
3 -2 5 11 4 29 0 26 3 32 14 28 10 -4 12 -1 6 9 -8 12 -6 12 8 0 15 -12 17
-12 12 2 -4 8 -1 18 6 23 8 5 10 3 4 -7 -7 -11 -5 -11 9 1 18 14 41 58 38 72
-1 5 1 7 6 7 19 -3 25 2 12 11 -12 8 -10 10 9 10 20 0 22 2 11 16 -11 13 -10
16 8 21 12 3 22 12 22 21 0 9 13 27 28 41 15 14 19 19 9 11 -20 -15 -20 -14
-3 12 12 18 23 25 33 21 9 -4 14 -2 10 3 -8 13 23 75 34 68 13 -7 7 19 -6 28
-6 5 -3 8 7 8 9 0 20 5 24 12 5 7 3 8 -7 3 -11 -7 -12 -6 -2 7 7 8 9 18 5 22
-4 4 0 6 8 4 10 -2 14 3 12 16 -2 10 1 16 6 12 8 -5 10 1 14 43 2 15 6 17 15
10 9 -8 11 -6 8 10 -2 12 3 24 12 29 8 5 13 18 11 28 -2 10 3 25 12 32 9 8 9
11 1 7 -8 -5 -6 3 5 21 11 15 18 29 17 31 -7 8 -2 23 6 18 5 -3 13 0 17 6 3 6
0 15 -7 20 -11 6 -10 9 4 15 9 3 14 10 11 15 -3 5 0 9 7 9 8 0 7 5 -2 17 -10
11 -10 14 -1 9 8 -5 12 0 12 16 1 24 23 61 32 53 2 -3 5 2 5 10 0 8 -5 11 -11
8 -6 -3 -5 0 2 8 6 7 12 28 12 47 0 20 4 31 10 27 13 -8 9 17 -4 26 -5 4 2 10
14 14 18 6 20 9 9 16 -10 6 -11 9 -1 9 7 0 12 14 12 34 0 19 5 38 10 41 8 5 7
12 -2 23 -10 12 -10 14 0 8 9 -5 12 9 12 58 0 46 4 66 13 66 7 0 8 3 2 8 -13
9 -18 35 -5 27 6 -3 10 4 10 17 0 13 6 30 12 36 10 10 10 15 -2 22 -10 7 -11
10 -2 10 9 0 12 58 12 255 0 197 -3 255 -12 255 -9 0 -8 4 2 10 10 6 11 10 3
10 -7 0 -13 10 -13 23 0 13 -6 29 -12 36 -10 11 -10 13 0 7 6 -4 12 -2 12 3 0
6 -4 11 -10 11 -6 0 -10 30 -10 70 0 49 -4 70 -12 70 -9 0 -8 4 2 10 10 6 11
10 3 10 -8 0 -13 15 -13 41 0 29 -3 38 -12 33 -9 -5 -9 -2 1 9 9 11 10 17 2
17 -6 0 -11 14 -11 30 0 17 -4 30 -10 30 -5 0 -10 5 -10 11 0 5 4 8 9 5 5 -4
4 5 -2 19 -7 14 -15 25 -19 25 -5 0 -8 5 -8 11 0 5 5 7 12 3 7 -4 8 -3 4 4 -4
7 -15 12 -24 12 -15 0 -15 2 -2 10 13 9 13 10 0 10 -13 0 -13 1 0 10 10 6 11
10 3 10 -7 0 -13 7 -13 15 0 8 -6 15 -12 15 -10 0 -9 3 1 9 9 6 10 10 2 12 -7
3 -13 15 -14 29 -1 14 -7 31 -14 38 -7 8 -11 18 -8 23 4 5 1 9 -4 9 -6 0 -11
7 -11 16 0 9 -5 12 -12 8 -8 -5 -7 0 2 11 9 11 10 16 3 11 -9 -5 -13 -1 -13
13 0 10 -6 22 -12 24 -10 4 -10 6 0 6 10 1 10 4 0 15 -7 8 -17 11 -23 8 -5 -3
-4 1 3 10 9 11 9 17 2 20 -6 2 -12 12 -14 22 -1 10 -9 24 -17 30 -8 6 -14 18
-14 26 0 8 -7 14 -15 12 -12 -3 -13 -1 -2 9 17 18 15 32 -4 25 -8 -3 -12 -2
-9 4 3 6 1 10 -4 10 -6 0 -11 7 -11 16 0 9 -5 12 -12 8 -10 -6 -10 -4 -1 7 11
10 8 19 -15 43 -15 17 -19 24 -9 17 10 -8 17 -9 17 -3 0 6 -9 14 -20 17 -11 3
-21 11 -21 16 -1 5 -2 15 -3 22 -1 6 -9 11 -19 11 -14 -2 -15 1 -6 12 9 11 7
14 -12 15 -13 0 -18 3 -11 6 9 3 7 10 -9 24 -12 10 -17 19 -11 19 7 0 12 5 12
10 0 6 -6 9 -12 8 -7 -2 -12 3 -10 10 1 6 -3 12 -9 12 -5 0 -8 4 -4 9 3 5 0
13 -6 17 -8 4 -9 3 -5 -4 4 -7 2 -12 -3 -12 -6 0 -11 7 -11 16 0 9 -5 12 -12
8 -10 -6 -10 -5 -1 7 10 13 10 16 -2 17 -8 1 -21 3 -28 4 -8 1 -13 11 -11 25
2 17 -2 23 -11 19 -8 -3 -12 2 -10 12 3 21 -28 52 -52 52 -15 0 -16 2 -3 10
12 8 10 10 -8 10 -13 0 -20 4 -17 10 3 6 1 10 -5 10 -7 0 -10 6 -7 13 3 8 -1
14 -9 14 -7 0 -10 -5 -7 -10 3 -6 1 -7 -5 -3 -7 4 -12 16 -12 26 0 10 -5 22
-12 26 -7 4 -8 3 -4 -4 5 -8 2 -10 -9 -6 -13 5 -13 9 -3 22 7 9 8 13 2 9 -6
-3 -20 1 -30 9 -10 9 -12 13 -4 9 10 -4 9 -2 -2 8 -10 8 -14 18 -10 23 4 4 -1
2 -10 -5 -16 -12 -18 -11 -18 3 0 10 -4 15 -9 12 -5 -3 -16 10 -25 29 -9 19
-19 35 -22 35 -3 0 -2 -6 1 -12 4 -7 0 -4 -9 6 -8 10 -13 23 -10 28 3 5 2 7
-3 6 -4 -1 -18 3 -29 10 -12 6 -24 8 -28 5 -3 -3 -6 1 -6 10 0 16 -12 22 -34
18 -5 -1 -4 5 3 13 10 12 9 14 -8 9 -13 -3 -21 -1 -21 6 0 7 -5 9 -12 5 -10
-6 -10 -4 0 8 11 14 9 16 -17 14 -26 -2 -28 0 -20 16 6 11 6 18 0 18 -5 0 -12
-6 -14 -12 -4 -10 -6 -10 -6 0 -1 6 -8 12 -16 12 -8 0 -15 8 -16 18 0 10 -3
12 -6 5 -6 -16 -33 8 -33 29 0 10 -3 9 -10 -2 -7 -11 -10 -11 -10 -2 0 7 -4
11 -8 8 -12 -7 -39 28 -34 44 4 10 0 10 -12 -3 -21 -21 -30 -22 -22 -2 3 8 0
14 -7 12 -7 -1 -11 4 -9 12 3 12 0 12 -12 1 -12 -9 -16 -9 -16 -1 0 7 -5 9
-10 6 -6 -4 -10 -3 -9 2 4 22 -3 31 -20 26 -10 -3 -22 0 -25 6 -4 6 -18 11
-31 11 -13 0 -25 4 -27 9 -1 5 -10 11 -18 13 -8 2 -18 8 -22 13 -5 6 -12 4
-18 -5 -5 -8 -10 -10 -10 -4 0 5 6 16 13 23 6 7 8 11 2 10 -16 -4 -65 12 -65
22 0 5 -7 6 -15 2 -9 -3 -23 3 -31 13 -9 11 -12 12 -8 4 7 -13 5 -13 -9 -1 -9
7 -24 11 -32 7 -8 -3 -15 -1 -15 5 0 5 -6 9 -12 8 -26 -3 -39 1 -33 11 5 9
-15 15 -37 11 -5 0 -8 4 -8 10 0 5 -5 7 -10 4 -6 -3 -13 1 -16 10 -5 13 -9 14
-15 4 -5 -9 -12 -10 -21 -3 -7 6 -25 10 -40 9 -15 0 -24 3 -22 7 3 5 -8 11
-25 14 -17 4 -28 11 -25 16 4 6 -2 6 -13 -1 -13 -6 -23 -7 -29 -1 -6 6 -22 11
-37 12 -15 1 -27 6 -27 11 0 5 -6 4 -14 -2 -10 -9 -16 -9 -21 -1 -5 8 -11 8
-21 -1 -11 -9 -14 -9 -14 0 0 7 -6 11 -12 10 -7 -1 -21 1 -31 6 -9 4 -26 5
-37 2 -11 -3 -20 -2 -20 2 0 4 -17 5 -37 1 -25 -4 -48 -2 -67 8 -23 11 -27 11
-20 0 6 -11 5 -11 -8 0 -9 7 -20 12 -24 11 -5 -1 -13 0 -19 1 -23 4 -86 2 -92
-4 -3 -3 -12 -1 -20 5 -7 6 -13 8 -13 3 0 -5 -45 -7 -100 -4 -55 3 -100 1
-100 -3 0 -4 -9 -3 -20 3 -11 6 -20 7 -20 3z m-930 -273 c0 -5 -5 -10 -11 -10
-5 0 -7 5 -4 10 3 6 8 10 11 10 2 0 4 -4 4 -10z m-170 -84 c0 -2 -8 -10 -17
-17 -16 -13 -17 -12 -4 4 13 16 21 21 21 13z m2921 -233 c12 -16 12 -17 -2 -6
-9 7 -20 9 -24 5 -5 -4 -5 -1 -1 6 9 16 11 15 27 -5z m-3485 -245 c4 -7 3 -10
-1 -5 -5 4 -18 -1 -29 -10 -21 -18 -21 -18 -2 5 22 26 23 26 32 10z m3788 -57
c-2 -3 -12 3 -22 13 -16 17 -16 18 5 5 12 -7 20 -15 17 -18z m-4010 -219 c3
-5 -1 -9 -9 -9 -8 0 -12 4 -9 9 3 4 7 8 9 8 2 0 6 -4 9 -8z m-189 -2482 c-3
-5 -12 -10 -18 -10 -7 0 -6 4 3 10 19 12 23 12 15 0z m4275 -494 c0 -11 -19
-15 -25 -6 -3 5 1 10 9 10 9 0 16 -2 16 -4z m-3970 -12 c0 -8 -19 -13 -24 -6
-3 5 1 9 9 9 8 0 15 -2 15 -3z m607 -550 c-3 -4 4 -15 16 -26 l22 -19 -27 17
c-24 14 -30 34 -11 34 4 0 4 -3 0 -6z"/>
<path d="M4950 5219 c0 -5 5 -7 10 -4 6 3 10 8 10 11 0 2 -4 4 -10 4 -5 0 -10
-5 -10 -11z"/>
<path d="M1196 3857 c3 -10 9 -15 12 -12 3 3 0 11 -7 18 -10 9 -11 8 -5 -6z"/>
</g>
</svg>
